<?xml version="1.0" encoding="UTF-8"?>
<svg xmlns="http://www.w3.org/2000/svg" width="32" height="32" viewBox="0 0 32 32" shape-rendering="crispEdges">
<rect x="6" y="16" width="6" height="1" fill="#B7C7E3"/>
<rect x="24" y="16" width="4" height="1" fill="#B7C7E3"/>
<rect x="12" y="16" width="12" height="1" fill="#8FA9D1"/>
<rect x="6" y="17" width="6" height="1" fill="#B7C7E3"/>
<rect x="24" y="17" width="4" height="1" fill="#B7C7E3"/>
<rect x="12" y="17" width="12" height="1" fill="#8FA9D1"/>
<rect x="6" y="18" width="2" height="1" fill="#B7C7E3"/>
<rect x="26" y="18" width="2" height="1" fill="#B7C7E3"/>
<rect x="8" y="18" width="18" height="1" fill="#8FA9D1"/>
<rect x="6" y="19" width="22" height="1" fill="#8FA9D1"/>
<rect x="6" y="20" width="6" height="1" fill="#8FA9D1"/>
<rect x="24" y="20" width="4" height="1" fill="#8FA9D1"/>
<rect x="12" y="20" width="12" height="1" fill="#6F89B9"/>
<rect x="6" y="21" width="2" height="1" fill="#8FA9D1"/>
<rect x="26" y="21" width="2" height="1" fill="#8FA9D1"/>
<rect x="8" y="21" width="18" height="1" fill="#6F89B9"/>
<rect x="8" y="14" width="18" height="1" fill="#B7C7E3"/>
<rect x="8" y="15" width="18" height="1" fill="#B7C7E3"/>
<rect x="12" y="12" width="12" height="1" fill="#B7C7E3"/>
<rect x="12" y="13" width="12" height="1" fill="#B7C7E3"/>
<rect x="16" y="11" width="8" height="1" fill="#B7C7E3"/>
<rect x="10" y="22" width="18" height="1" fill="#B7C7E3"/>
<rect x="12" y="11" width="4" height="1" fill="#3E3B72"/>
<rect x="24" y="11" width="1" height="1" fill="#3E3B72"/>
<rect x="16" y="10" width="8" height="1" fill="#3E3B72"/>
<rect x="11" y="12" width="1" height="1" fill="#3E3B72"/>
<rect x="24" y="12" width="1" height="1" fill="#3E3B72"/>
<rect x="8" y="13" width="4" height="1" fill="#3E3B72"/>
<rect x="24" y="13" width="2" height="1" fill="#3E3B72"/>
<rect x="7" y="14" width="1" height="1" fill="#3E3B72"/>
<rect x="26" y="14" width="1" height="1" fill="#3E3B72"/>
<rect x="6" y="15" width="2" height="1" fill="#3E3B72"/>
<rect x="26" y="15" width="2" height="1" fill="#3E3B72"/>
<rect x="5" y="16" width="1" height="1" fill="#3E3B72"/>
<rect x="28" y="16" width="1" height="1" fill="#3E3B72"/>
<rect x="5" y="17" width="1" height="1" fill="#3E3B72"/>
<rect x="28" y="17" width="1" height="1" fill="#3E3B72"/>
<rect x="5" y="18" width="1" height="1" fill="#3E3B72"/>
<rect x="28" y="18" width="1" height="1" fill="#3E3B72"/>
<rect x="5" y="19" width="1" height="1" fill="#3E3B72"/>
<rect x="28" y="19" width="1" height="1" fill="#3E3B72"/>
<rect x="5" y="20" width="1" height="1" fill="#3E3B72"/>
<rect x="28" y="20" width="1" height="1" fill="#3E3B72"/>
<rect x="5" y="21" width="1" height="1" fill="#3E3B72"/>
<rect x="28" y="21" width="1" height="1" fill="#3E3B72"/>
<rect x="6" y="22" width="4" height="1" fill="#3E3B72"/>
<rect x="28" y="22" width="1" height="1" fill="#3E3B72"/>
<rect x="10" y="23" width="18" height="1" fill="#3E3B72"/>
</svg>
