<?xml version="1.0" encoding="UTF-8"?>
<svg xmlns="http://www.w3.org/2000/svg" width="32" height="32" viewBox="0 0 32 32" shape-rendering="crispEdges">
<rect x="20" y="6" width="1" height="1" fill="#FFC53D"/>
<rect x="17" y="7" width="7" height="1" fill="#FFC53D"/>
<rect x="16" y="8" width="4" height="1" fill="#FFC53D"/>
<rect x="21" y="8" width="4" height="1" fill="#FFC53D"/>
<rect x="20" y="8" width="1" height="1" fill="#FF9A2E"/>
<rect x="15" y="9" width="3" height="1" fill="#FFC53D"/>
<rect x="23" y="9" width="3" height="1" fill="#FFC53D"/>
<rect x="18" y="9" width="5" height="1" fill="#FF9A2E"/>
<rect x="15" y="10" width="2" height="1" fill="#FFC53D"/>
<rect x="24" y="10" width="2" height="1" fill="#FFC53D"/>
<rect x="17" y="10" width="3" height="1" fill="#FF9A2E"/>
<rect x="21" y="10" width="3" height="1" fill="#FF9A2E"/>
<rect x="20" y="10" width="1" height="1" fill="#FF6B1A"/>
<rect x="15" y="11" width="2" height="1" fill="#FFC53D"/>
<rect x="24" y="11" width="2" height="1" fill="#FFC53D"/>
<rect x="17" y="11" width="2" height="1" fill="#FF9A2E"/>
<rect x="22" y="11" width="2" height="1" fill="#FF9A2E"/>
<rect x="19" y="11" width="3" height="1" fill="#FF6B1A"/>
<rect x="14" y="12" width="2" height="1" fill="#FFC53D"/>
<rect x="25" y="12" width="2" height="1" fill="#FFC53D"/>
<rect x="10" y="12" width="1" height="1" fill="#FF9A2E"/>
<rect x="16" y="12" width="2" height="1" fill="#FF9A2E"/>
<rect x="23" y="12" width="2" height="1" fill="#FF9A2E"/>
<rect x="30" y="12" width="1" height="1" fill="#FF9A2E"/>
<rect x="18" y="12" width="5" height="1" fill="#FF6B1A"/>
<rect x="15" y="13" width="1" height="1" fill="#FFC53D"/>
<rect x="24" y="13" width="2" height="1" fill="#FFC53D"/>
<rect x="16" y="13" width="8" height="1" fill="#B7C7E3"/>
<rect x="12" y="14" width="12" height="1" fill="#B7C7E3"/>
<rect x="24" y="14" width="2" height="1" fill="#FFC53D"/>
<rect x="12" y="15" width="12" height="1" fill="#B7C7E3"/>
<rect x="24" y="15" width="2" height="1" fill="#FFC53D"/>
<rect x="8" y="16" width="18" height="1" fill="#B7C7E3"/>
<rect x="8" y="17" width="18" height="1" fill="#B7C7E3"/>
<rect x="12" y="18" width="12" height="1" fill="#8FA9D1"/>
<rect x="17" y="6" width="3" height="1" fill="#3E3B72"/>
<rect x="21" y="6" width="3" height="1" fill="#3E3B72"/>
<rect x="20" y="5" width="1" height="1" fill="#3E3B72"/>
<rect x="16" y="7" width="1" height="1" fill="#3E3B72"/>
<rect x="24" y="7" width="1" height="1" fill="#3E3B72"/>
<rect x="15" y="8" width="1" height="1" fill="#3E3B72"/>
<rect x="25" y="8" width="1" height="1" fill="#3E3B72"/>
<rect x="14" y="9" width="1" height="1" fill="#3E3B72"/>
<rect x="26" y="9" width="1" height="1" fill="#3E3B72"/>
<rect x="14" y="10" width="1" height="1" fill="#3E3B72"/>
<rect x="26" y="10" width="1" height="1" fill="#3E3B72"/>
<rect x="10" y="11" width="1" height="1" fill="#3E3B72"/>
<rect x="14" y="11" width="1" height="1" fill="#3E3B72"/>
<rect x="26" y="11" width="1" height="1" fill="#3E3B72"/>
<rect x="30" y="11" width="1" height="1" fill="#3E3B72"/>
<rect x="9" y="12" width="1" height="1" fill="#3E3B72"/>
<rect x="11" y="12" width="1" height="1" fill="#3E3B72"/>
<rect x="13" y="12" width="1" height="1" fill="#3E3B72"/>
<rect x="27" y="12" width="1" height="1" fill="#3E3B72"/>
<rect x="29" y="12" width="1" height="1" fill="#3E3B72"/>
<rect x="31" y="12" width="1" height="1" fill="#3E3B72"/>
<rect x="10" y="13" width="1" height="1" fill="#3E3B72"/>
<rect x="12" y="13" width="3" height="1" fill="#3E3B72"/>
<rect x="26" y="13" width="1" height="1" fill="#3E3B72"/>
<rect x="30" y="13" width="1" height="1" fill="#3E3B72"/>
<rect x="11" y="14" width="1" height="1" fill="#3E3B72"/>
<rect x="26" y="14" width="1" height="1" fill="#3E3B72"/>
<rect x="8" y="15" width="4" height="1" fill="#3E3B72"/>
<rect x="26" y="15" width="1" height="1" fill="#3E3B72"/>
<rect x="12" y="19" width="12" height="1" fill="#8FA9D1"/>
<rect x="20" y="2" width="1" height="1" fill="#FF9A2E"/>
<rect x="11" y="2" width="1" height="1" fill="#3E3B72"/>
<rect x="19" y="2" width="1" height="1" fill="#3E3B72"/>
<rect x="21" y="2" width="1" height="1" fill="#3E3B72"/>
<rect x="29" y="2" width="1" height="1" fill="#3E3B72"/>
<rect x="20" y="1" width="1" height="1" fill="#3E3B72"/>
<rect x="10" y="3" width="1" height="1" fill="#3E3B72"/>
<rect x="12" y="3" width="1" height="1" fill="#3E3B72"/>
<rect x="20" y="3" width="1" height="1" fill="#3E3B72"/>
<rect x="28" y="3" width="1" height="1" fill="#3E3B72"/>
<rect x="30" y="3" width="1" height="1" fill="#3E3B72"/>
<rect x="12" y="22" width="12" height="1" fill="#6F89B9"/>
<rect x="6" y="21" width="22" height="1" fill="#8FA9D1"/>
<rect x="8" y="23" width="18" height="1" fill="#6F89B9"/>
<rect x="11" y="3" width="1" height="1" fill="#FF9A2E"/>
<rect x="29" y="3" width="1" height="1" fill="#FF9A2E"/>
<rect x="11" y="4" width="1" height="1" fill="#3E3B72"/>
<rect x="29" y="4" width="1" height="1" fill="#3E3B72"/>
<rect x="8" y="20" width="18" height="1" fill="#8FA9D1"/>
<rect x="6" y="22" width="6" height="1" fill="#8FA9D1"/>
<rect x="24" y="22" width="4" height="1" fill="#8FA9D1"/>
<rect x="29" y="21" width="1" height="1" fill="#FF9A2E"/>
<rect x="5" y="21" width="1" height="1" fill="#3E3B72"/>
<rect x="28" y="21" width="1" height="1" fill="#3E3B72"/>
<rect x="30" y="21" width="1" height="1" fill="#3E3B72"/>
<rect x="5" y="20" width="1" height="1" fill="#3E3B72"/>
<rect x="28" y="20" width="2" height="1" fill="#3E3B72"/>
<rect x="5" y="22" width="1" height="1" fill="#3E3B72"/>
<rect x="28" y="22" width="2" height="1" fill="#3E3B72"/>
<rect x="6" y="18" width="6" height="1" fill="#B7C7E3"/>
<rect x="24" y="18" width="4" height="1" fill="#B7C7E3"/>
<rect x="6" y="19" width="6" height="1" fill="#B7C7E3"/>
<rect x="24" y="19" width="4" height="1" fill="#B7C7E3"/>
<rect x="6" y="20" width="2" height="1" fill="#B7C7E3"/>
<rect x="26" y="20" width="2" height="1" fill="#B7C7E3"/>
<rect x="6" y="23" width="2" height="1" fill="#8FA9D1"/>
<rect x="26" y="23" width="2" height="1" fill="#8FA9D1"/>
<rect x="10" y="24" width="18" height="1" fill="#B7C7E3"/>
<rect x="7" y="16" width="1" height="1" fill="#3E3B72"/>
<rect x="26" y="16" width="1" height="1" fill="#3E3B72"/>
<rect x="6" y="17" width="2" height="1" fill="#3E3B72"/>
<rect x="26" y="17" width="2" height="1" fill="#3E3B72"/>
<rect x="5" y="18" width="1" height="1" fill="#3E3B72"/>
<rect x="28" y="18" width="1" height="1" fill="#3E3B72"/>
<rect x="5" y="19" width="1" height="1" fill="#3E3B72"/>
<rect x="28" y="19" width="1" height="1" fill="#3E3B72"/>
<rect x="5" y="23" width="1" height="1" fill="#3E3B72"/>
<rect x="28" y="23" width="1" height="1" fill="#3E3B72"/>
<rect x="6" y="24" width="4" height="1" fill="#3E3B72"/>
<rect x="28" y="24" width="1" height="1" fill="#3E3B72"/>
<rect x="10" y="25" width="18" height="1" fill="#3E3B72"/>
</svg>
