<?xml version="1.0" encoding="UTF-8"?>
<svg xmlns="http://www.w3.org/2000/svg" width="32" height="32" viewBox="0 0 32 32" shape-rendering="crispEdges">
<rect x="6" y="14" width="6" height="1" fill="#B7C7E3"/>
<rect x="24" y="14" width="4" height="1" fill="#B7C7E3"/>
<rect x="12" y="14" width="12" height="1" fill="#8FA9D1"/>
<rect x="6" y="15" width="6" height="1" fill="#B7C7E3"/>
<rect x="24" y="15" width="4" height="1" fill="#B7C7E3"/>
<rect x="12" y="15" width="12" height="1" fill="#8FA9D1"/>
<rect x="6" y="16" width="2" height="1" fill="#B7C7E3"/>
<rect x="26" y="16" width="2" height="1" fill="#B7C7E3"/>
<rect x="8" y="16" width="18" height="1" fill="#8FA9D1"/>
<rect x="6" y="17" width="22" height="1" fill="#8FA9D1"/>
<rect x="6" y="18" width="6" height="1" fill="#8FA9D1"/>
<rect x="24" y="18" width="4" height="1" fill="#8FA9D1"/>
<rect x="12" y="18" width="12" height="1" fill="#6F89B9"/>
<rect x="6" y="19" width="2" height="1" fill="#8FA9D1"/>
<rect x="26" y="19" width="2" height="1" fill="#8FA9D1"/>
<rect x="8" y="19" width="18" height="1" fill="#6F89B9"/>
<rect x="8" y="12" width="18" height="1" fill="#B7C7E3"/>
<rect x="8" y="13" width="18" height="1" fill="#B7C7E3"/>
<rect x="12" y="10" width="12" height="1" fill="#B7C7E3"/>
<rect x="12" y="11" width="12" height="1" fill="#B7C7E3"/>
<rect x="16" y="9" width="8" height="1" fill="#B7C7E3"/>
<rect x="10" y="20" width="4" height="1" fill="#B7C7E3"/>
<rect x="17" y="20" width="11" height="1" fill="#B7C7E3"/>
<rect x="14" y="20" width="3" height="1" fill="#FF9A2E"/>
<rect x="12" y="9" width="4" height="1" fill="#3E3B72"/>
<rect x="24" y="9" width="1" height="1" fill="#3E3B72"/>
<rect x="16" y="8" width="8" height="1" fill="#3E3B72"/>
<rect x="11" y="10" width="1" height="1" fill="#3E3B72"/>
<rect x="24" y="10" width="1" height="1" fill="#3E3B72"/>
<rect x="8" y="11" width="4" height="1" fill="#3E3B72"/>
<rect x="24" y="11" width="2" height="1" fill="#3E3B72"/>
<rect x="7" y="12" width="1" height="1" fill="#3E3B72"/>
<rect x="26" y="12" width="1" height="1" fill="#3E3B72"/>
<rect x="6" y="13" width="2" height="1" fill="#3E3B72"/>
<rect x="26" y="13" width="2" height="1" fill="#3E3B72"/>
<rect x="5" y="14" width="1" height="1" fill="#3E3B72"/>
<rect x="28" y="14" width="1" height="1" fill="#3E3B72"/>
<rect x="5" y="15" width="1" height="1" fill="#3E3B72"/>
<rect x="28" y="15" width="1" height="1" fill="#3E3B72"/>
<rect x="5" y="16" width="1" height="1" fill="#3E3B72"/>
<rect x="28" y="16" width="1" height="1" fill="#3E3B72"/>
<rect x="5" y="17" width="1" height="1" fill="#3E3B72"/>
<rect x="28" y="17" width="1" height="1" fill="#3E3B72"/>
<rect x="5" y="18" width="1" height="1" fill="#3E3B72"/>
<rect x="28" y="18" width="1" height="1" fill="#3E3B72"/>
<rect x="5" y="19" width="1" height="1" fill="#3E3B72"/>
<rect x="28" y="19" width="1" height="1" fill="#3E3B72"/>
<rect x="6" y="20" width="4" height="1" fill="#3E3B72"/>
<rect x="28" y="20" width="1" height="1" fill="#3E3B72"/>
<rect x="10" y="21" width="5" height="1" fill="#3E3B72"/>
<rect x="18" y="21" width="10" height="1" fill="#3E3B72"/>
<rect x="15" y="21" width="1" height="1" fill="#FF9A2E"/>
<rect x="17" y="21" width="1" height="1" fill="#FF9A2E"/>
<rect x="16" y="21" width="1" height="1" fill="#FFC53D"/>
<rect x="16" y="22" width="1" height="1" fill="#FF9A2E"/>
<rect x="18" y="22" width="1" height="1" fill="#FF9A2E"/>
<rect x="17" y="22" width="1" height="1" fill="#FFC53D"/>
<rect x="17" y="23" width="1" height="1" fill="#FF9A2E"/>
<rect x="19" y="23" width="1" height="1" fill="#FF9A2E"/>
<rect x="18" y="23" width="1" height="1" fill="#FFC53D"/>
<rect x="18" y="24" width="1" height="1" fill="#FF9A2E"/>
<rect x="20" y="24" width="1" height="1" fill="#FF9A2E"/>
<rect x="19" y="24" width="1" height="1" fill="#FFC53D"/>
<rect x="19" y="25" width="2" height="1" fill="#FF9A2E"/>
<rect x="15" y="22" width="1" height="1" fill="#3E3B72"/>
<rect x="19" y="22" width="1" height="1" fill="#3E3B72"/>
<rect x="16" y="23" width="1" height="1" fill="#3E3B72"/>
<rect x="20" y="23" width="1" height="1" fill="#3E3B72"/>
<rect x="17" y="24" width="1" height="1" fill="#3E3B72"/>
<rect x="21" y="24" width="1" height="1" fill="#3E3B72"/>
<rect x="18" y="25" width="1" height="1" fill="#3E3B72"/>
<rect x="21" y="25" width="1" height="1" fill="#3E3B72"/>
<rect x="19" y="26" width="2" height="1" fill="#3E3B72"/>
</svg>
