<?xml version="1.0" encoding="UTF-8"?>
<svg xmlns="http://www.w3.org/2000/svg" width="32" height="32" viewBox="0 0 32 32" shape-rendering="crispEdges">
<rect x="6" y="13" width="16" height="1" fill="#8FA9D1"/>
<rect x="8" y="17" width="13" height="1" fill="#8FA9D1"/>
<rect x="7" y="21" width="11" height="1" fill="#8FA9D1"/>
<rect x="20" y="12" width="1" height="1" fill="#8FA9D1"/>
<rect x="20" y="14" width="1" height="1" fill="#8FA9D1"/>
<rect x="19" y="15" width="1" height="1" fill="#8FA9D1"/>
<rect x="19" y="16" width="1" height="1" fill="#8FA9D1"/>
<rect x="19" y="18" width="1" height="1" fill="#8FA9D1"/>
<rect x="18" y="19" width="1" height="1" fill="#8FA9D1"/>
<rect x="5" y="13" width="1" height="1" fill="#3E3B72"/>
<rect x="22" y="13" width="1" height="1" fill="#3E3B72"/>
<rect x="6" y="12" width="14" height="1" fill="#3E3B72"/>
<rect x="21" y="12" width="1" height="1" fill="#3E3B72"/>
<rect x="6" y="14" width="14" height="1" fill="#3E3B72"/>
<rect x="21" y="14" width="1" height="1" fill="#3E3B72"/>
<rect x="7" y="17" width="1" height="1" fill="#3E3B72"/>
<rect x="21" y="17" width="1" height="1" fill="#3E3B72"/>
<rect x="8" y="16" width="11" height="1" fill="#3E3B72"/>
<rect x="20" y="16" width="1" height="1" fill="#3E3B72"/>
<rect x="8" y="18" width="11" height="1" fill="#3E3B72"/>
<rect x="20" y="18" width="1" height="1" fill="#3E3B72"/>
<rect x="6" y="21" width="1" height="1" fill="#3E3B72"/>
<rect x="18" y="21" width="1" height="1" fill="#3E3B72"/>
<rect x="7" y="20" width="12" height="1" fill="#3E3B72"/>
<rect x="7" y="22" width="11" height="1" fill="#3E3B72"/>
<rect x="20" y="11" width="1" height="1" fill="#3E3B72"/>
<rect x="18" y="15" width="1" height="1" fill="#3E3B72"/>
<rect x="20" y="15" width="1" height="1" fill="#3E3B72"/>
<rect x="17" y="19" width="1" height="1" fill="#3E3B72"/>
<rect x="19" y="19" width="1" height="1" fill="#3E3B72"/>
</svg>
