<?xml version="1.0" encoding="UTF-8"?>
<svg xmlns="http://www.w3.org/2000/svg" width="32" height="32" viewBox="0 0 32 32" shape-rendering="crispEdges">
<rect x="14" y="9" width="1" height="1" fill="#FFC53D"/>
<rect x="11" y="10" width="7" height="1" fill="#FFC53D"/>
<rect x="10" y="11" width="4" height="1" fill="#FFC53D"/>
<rect x="15" y="11" width="4" height="1" fill="#FFC53D"/>
<rect x="14" y="11" width="1" height="1" fill="#FF9A2E"/>
<rect x="10" y="12" width="2" height="1" fill="#FFC53D"/>
<rect x="17" y="12" width="2" height="1" fill="#FFC53D"/>
<rect x="12" y="12" width="5" height="1" fill="#FF9A2E"/>
<rect x="10" y="13" width="2" height="1" fill="#FFC53D"/>
<rect x="17" y="13" width="2" height="1" fill="#FFC53D"/>
<rect x="12" y="13" width="5" height="1" fill="#FF9A2E"/>
<rect x="9" y="14" width="2" height="1" fill="#FFC53D"/>
<rect x="18" y="14" width="2" height="1" fill="#FFC53D"/>
<rect x="6" y="14" width="1" height="1" fill="#FF9A2E"/>
<rect x="11" y="14" width="7" height="1" fill="#FF9A2E"/>
<rect x="22" y="14" width="1" height="1" fill="#FF9A2E"/>
<rect x="10" y="15" width="2" height="1" fill="#FFC53D"/>
<rect x="17" y="15" width="2" height="1" fill="#FFC53D"/>
<rect x="12" y="15" width="5" height="1" fill="#FF9A2E"/>
<rect x="10" y="16" width="2" height="1" fill="#FFC53D"/>
<rect x="12" y="16" width="1" height="1" fill="#FF9A2E"/>
<rect x="13" y="16" width="13" height="1" fill="#AFC2E6"/>
<rect x="10" y="17" width="3" height="1" fill="#FFC53D"/>
<rect x="13" y="17" width="13" height="1" fill="#AFC2E6"/>
<rect x="11" y="18" width="2" height="1" fill="#FFC53D"/>
<rect x="13" y="18" width="13" height="1" fill="#AFC2E6"/>
<rect x="10" y="19" width="14" height="1" fill="#AFC2E6"/>
<rect x="14" y="6" width="1" height="1" fill="#FF9A2E"/>
<rect x="11" y="22" width="12" height="1" fill="#8FA9D1"/>
<rect x="7" y="7" width="1" height="1" fill="#FF9A2E"/>
<rect x="21" y="7" width="1" height="1" fill="#FF9A2E"/>
<rect x="7" y="21" width="1" height="1" fill="#FF9A2E"/>
<rect x="11" y="21" width="12" height="1" fill="#8FA9D1"/>
<rect x="10" y="23" width="14" height="1" fill="#3E3B72"/>
<rect x="11" y="9" width="3" height="1" fill="#3E3B72"/>
<rect x="15" y="9" width="3" height="1" fill="#3E3B72"/>
<rect x="9" y="12" width="1" height="1" fill="#3E3B72"/>
<rect x="19" y="12" width="1" height="1" fill="#3E3B72"/>
<rect x="6" y="21" width="1" height="1" fill="#3E3B72"/>
<rect x="8" y="21" width="2" height="1" fill="#3E3B72"/>
<rect x="24" y="21" width="1" height="1" fill="#3E3B72"/>
<rect x="7" y="20" width="1" height="1" fill="#3E3B72"/>
<rect x="9" y="20" width="1" height="1" fill="#3E3B72"/>
<rect x="24" y="20" width="1" height="1" fill="#3E3B72"/>
<rect x="7" y="22" width="1" height="1" fill="#3E3B72"/>
<rect x="9" y="22" width="1" height="1" fill="#3E3B72"/>
<rect x="24" y="22" width="1" height="1" fill="#3E3B72"/>
<rect x="5" y="14" width="1" height="1" fill="#3E3B72"/>
<rect x="7" y="14" width="2" height="1" fill="#3E3B72"/>
<rect x="20" y="14" width="2" height="1" fill="#3E3B72"/>
<rect x="23" y="14" width="3" height="1" fill="#3E3B72"/>
<rect x="6" y="13" width="1" height="1" fill="#3E3B72"/>
<rect x="9" y="13" width="1" height="1" fill="#3E3B72"/>
<rect x="19" y="13" width="1" height="1" fill="#3E3B72"/>
<rect x="22" y="13" width="1" height="1" fill="#3E3B72"/>
<rect x="19" y="15" width="7" height="1" fill="#AFC2E6"/>
<rect x="10" y="20" width="14" height="1" fill="#AFC2E6"/>
<rect x="6" y="15" width="1" height="1" fill="#3E3B72"/>
<rect x="9" y="15" width="1" height="1" fill="#3E3B72"/>
<rect x="26" y="15" width="1" height="1" fill="#3E3B72"/>
<rect x="6" y="7" width="1" height="1" fill="#3E3B72"/>
<rect x="8" y="7" width="1" height="1" fill="#3E3B72"/>
<rect x="14" y="7" width="1" height="1" fill="#3E3B72"/>
<rect x="20" y="7" width="1" height="1" fill="#3E3B72"/>
<rect x="22" y="7" width="1" height="1" fill="#3E3B72"/>
<rect x="7" y="6" width="1" height="1" fill="#3E3B72"/>
<rect x="13" y="6" width="1" height="1" fill="#3E3B72"/>
<rect x="15" y="6" width="1" height="1" fill="#3E3B72"/>
<rect x="21" y="6" width="1" height="1" fill="#3E3B72"/>
<rect x="7" y="8" width="1" height="1" fill="#3E3B72"/>
<rect x="14" y="8" width="1" height="1" fill="#3E3B72"/>
<rect x="21" y="8" width="1" height="1" fill="#3E3B72"/>
<rect x="9" y="17" width="1" height="1" fill="#3E3B72"/>
<rect x="26" y="17" width="1" height="1" fill="#3E3B72"/>
<rect x="10" y="18" width="1" height="1" fill="#3E3B72"/>
<rect x="26" y="18" width="1" height="1" fill="#3E3B72"/>
<rect x="9" y="11" width="1" height="1" fill="#3E3B72"/>
<rect x="19" y="11" width="1" height="1" fill="#3E3B72"/>
<rect x="10" y="10" width="1" height="1" fill="#3E3B72"/>
<rect x="18" y="10" width="1" height="1" fill="#3E3B72"/>
<rect x="9" y="16" width="1" height="1" fill="#3E3B72"/>
<rect x="26" y="16" width="1" height="1" fill="#3E3B72"/>
<rect x="14" y="5" width="1" height="1" fill="#3E3B72"/>
<rect x="10" y="21" width="1" height="1" fill="#AFC2E6"/>
<rect x="23" y="21" width="1" height="1" fill="#AFC2E6"/>
<rect x="10" y="22" width="1" height="1" fill="#AFC2E6"/>
<rect x="23" y="22" width="1" height="1" fill="#AFC2E6"/>
<rect x="9" y="19" width="1" height="1" fill="#3E3B72"/>
<rect x="24" y="19" width="2" height="1" fill="#3E3B72"/>
</svg>
