<?xml version="1.0" encoding="UTF-8"?>
<svg xmlns="http://www.w3.org/2000/svg" width="32" height="32" viewBox="0 0 32 32" shape-rendering="crispEdges">
<rect x="8" y="14" width="18" height="1" fill="#AFC2E6"/>
<rect x="8" y="15" width="18" height="1" fill="#AFC2E6"/>
<rect x="8" y="16" width="1" height="1" fill="#AFC2E6"/>
<rect x="25" y="16" width="1" height="1" fill="#AFC2E6"/>
<rect x="9" y="16" width="16" height="1" fill="#8FA9D1"/>
<rect x="8" y="17" width="1" height="1" fill="#AFC2E6"/>
<rect x="25" y="17" width="1" height="1" fill="#AFC2E6"/>
<rect x="9" y="17" width="16" height="1" fill="#8FA9D1"/>
<rect x="11" y="11" width="13" height="1" fill="#AFC2E6"/>
<rect x="11" y="12" width="13" height="1" fill="#AFC2E6"/>
<rect x="11" y="13" width="13" height="1" fill="#AFC2E6"/>
<rect x="17" y="10" width="7" height="1" fill="#AFC2E6"/>
<rect x="8" y="18" width="18" height="1" fill="#3E3B72"/>
<rect x="17" y="9" width="7" height="1" fill="#3E3B72"/>
<rect x="8" y="13" width="3" height="1" fill="#3E3B72"/>
<rect x="24" y="13" width="2" height="1" fill="#3E3B72"/>
<rect x="11" y="10" width="6" height="1" fill="#3E3B72"/>
<rect x="24" y="10" width="1" height="1" fill="#3E3B72"/>
<rect x="7" y="15" width="1" height="1" fill="#3E3B72"/>
<rect x="26" y="15" width="1" height="1" fill="#3E3B72"/>
<rect x="7" y="17" width="1" height="1" fill="#3E3B72"/>
<rect x="26" y="17" width="1" height="1" fill="#3E3B72"/>
<rect x="10" y="11" width="1" height="1" fill="#3E3B72"/>
<rect x="24" y="11" width="1" height="1" fill="#3E3B72"/>
<rect x="10" y="12" width="1" height="1" fill="#3E3B72"/>
<rect x="24" y="12" width="1" height="1" fill="#3E3B72"/>
<rect x="7" y="14" width="1" height="1" fill="#3E3B72"/>
<rect x="26" y="14" width="1" height="1" fill="#3E3B72"/>
<rect x="7" y="16" width="1" height="1" fill="#3E3B72"/>
<rect x="26" y="16" width="1" height="1" fill="#3E3B72"/>
<rect x="12" y="21" width="1" height="1" fill="#4B79C8"/>
<rect x="16" y="21" width="1" height="1" fill="#4B79C8"/>
<rect x="12" y="23" width="1" height="1" fill="#4B79C8"/>
<rect x="16" y="23" width="1" height="1" fill="#4B79C8"/>
<rect x="12" y="25" width="1" height="1" fill="#4B79C8"/>
<rect x="16" y="25" width="1" height="1" fill="#4B79C8"/>
<rect x="11" y="23" width="1" height="1" fill="#3E3B72"/>
<rect x="13" y="23" width="1" height="1" fill="#3E3B72"/>
<rect x="15" y="23" width="1" height="1" fill="#3E3B72"/>
<rect x="17" y="23" width="1" height="1" fill="#3E3B72"/>
<rect x="22" y="23" width="2" height="1" fill="#3E3B72"/>
<rect x="12" y="22" width="1" height="1" fill="#3E3B72"/>
<rect x="16" y="22" width="1" height="1" fill="#3E3B72"/>
<rect x="22" y="22" width="1" height="1" fill="#3E3B72"/>
<rect x="24" y="22" width="1" height="1" fill="#3E3B72"/>
<rect x="12" y="24" width="1" height="1" fill="#3E3B72"/>
<rect x="16" y="24" width="1" height="1" fill="#3E3B72"/>
<rect x="21" y="24" width="1" height="1" fill="#3E3B72"/>
<rect x="23" y="24" width="1" height="1" fill="#3E3B72"/>
<rect x="11" y="25" width="1" height="1" fill="#3E3B72"/>
<rect x="13" y="25" width="1" height="1" fill="#3E3B72"/>
<rect x="15" y="25" width="1" height="1" fill="#3E3B72"/>
<rect x="17" y="25" width="1" height="1" fill="#3E3B72"/>
<rect x="22" y="25" width="1" height="1" fill="#3E3B72"/>
<rect x="12" y="26" width="1" height="1" fill="#3E3B72"/>
<rect x="16" y="26" width="1" height="1" fill="#3E3B72"/>
<rect x="11" y="21" width="1" height="1" fill="#3E3B72"/>
<rect x="13" y="21" width="1" height="1" fill="#3E3B72"/>
<rect x="15" y="21" width="1" height="1" fill="#3E3B72"/>
<rect x="17" y="21" width="1" height="1" fill="#3E3B72"/>
<rect x="23" y="21" width="1" height="1" fill="#3E3B72"/>
<rect x="12" y="20" width="1" height="1" fill="#3E3B72"/>
<rect x="16" y="20" width="1" height="1" fill="#3E3B72"/>
<rect x="23" y="22" width="1" height="1" fill="#6F89B9"/>
<rect x="22" y="24" width="1" height="1" fill="#6F89B9"/>
</svg>
