<?xml version="1.0" encoding="UTF-8"?>
<svg xmlns="http://www.w3.org/2000/svg" width="32" height="32" viewBox="0 0 32 32" shape-rendering="crispEdges">
<rect x="11" y="8" width="1" height="1" fill="#FFC53D"/>
<rect x="9" y="9" width="5" height="1" fill="#FFC53D"/>
<rect x="8" y="10" width="3" height="1" fill="#FFC53D"/>
<rect x="12" y="10" width="3" height="1" fill="#FFC53D"/>
<rect x="11" y="10" width="1" height="1" fill="#FF9A2E"/>
<rect x="8" y="11" width="2" height="1" fill="#FFC53D"/>
<rect x="13" y="11" width="2" height="1" fill="#FFC53D"/>
<rect x="10" y="11" width="3" height="1" fill="#FF9A2E"/>
<rect x="7" y="12" width="2" height="1" fill="#FFC53D"/>
<rect x="14" y="12" width="2" height="1" fill="#FFC53D"/>
<rect x="4" y="12" width="1" height="1" fill="#FF9A2E"/>
<rect x="9" y="12" width="5" height="1" fill="#FF9A2E"/>
<rect x="18" y="12" width="1" height="1" fill="#FF9A2E"/>
<rect x="8" y="13" width="2" height="1" fill="#FFC53D"/>
<rect x="13" y="13" width="2" height="1" fill="#FFC53D"/>
<rect x="10" y="13" width="3" height="1" fill="#FF9A2E"/>
<rect x="8" y="14" width="3" height="1" fill="#FFC53D"/>
<rect x="11" y="14" width="1" height="1" fill="#FF9A2E"/>
<rect x="12" y="14" width="13" height="1" fill="#AFC2E6"/>
<rect x="9" y="15" width="3" height="1" fill="#FFC53D"/>
<rect x="12" y="15" width="13" height="1" fill="#AFC2E6"/>
<rect x="11" y="16" width="1" height="1" fill="#FFC53D"/>
<rect x="11" y="5" width="1" height="1" fill="#FF9A2E"/>
<rect x="10" y="19" width="2" height="1" fill="#8FA9D1"/>
<rect x="13" y="19" width="3" height="1" fill="#8FA9D1"/>
<rect x="17" y="19" width="3" height="1" fill="#8FA9D1"/>
<rect x="21" y="19" width="3" height="1" fill="#8FA9D1"/>
<rect x="5" y="6" width="1" height="1" fill="#FF9A2E"/>
<rect x="17" y="6" width="1" height="1" fill="#FF9A2E"/>
<rect x="5" y="18" width="1" height="1" fill="#FF9A2E"/>
<rect x="9" y="18" width="17" height="1" fill="#AFC2E6"/>
<rect x="7" y="10" width="1" height="1" fill="#3E3B72"/>
<rect x="15" y="10" width="1" height="1" fill="#3E3B72"/>
<rect x="8" y="9" width="1" height="1" fill="#3E3B72"/>
<rect x="14" y="9" width="1" height="1" fill="#3E3B72"/>
<rect x="3" y="12" width="1" height="1" fill="#3E3B72"/>
<rect x="5" y="12" width="2" height="1" fill="#3E3B72"/>
<rect x="16" y="12" width="2" height="1" fill="#3E3B72"/>
<rect x="19" y="12" width="6" height="1" fill="#3E3B72"/>
<rect x="4" y="11" width="1" height="1" fill="#3E3B72"/>
<rect x="7" y="11" width="1" height="1" fill="#3E3B72"/>
<rect x="15" y="11" width="1" height="1" fill="#3E3B72"/>
<rect x="18" y="11" width="1" height="1" fill="#3E3B72"/>
<rect x="4" y="13" width="1" height="1" fill="#3E3B72"/>
<rect x="7" y="13" width="1" height="1" fill="#3E3B72"/>
<rect x="15" y="13" width="3" height="1" fill="#3E3B72"/>
<rect x="25" y="13" width="1" height="1" fill="#3E3B72"/>
<rect x="4" y="6" width="1" height="1" fill="#3E3B72"/>
<rect x="6" y="6" width="1" height="1" fill="#3E3B72"/>
<rect x="11" y="6" width="1" height="1" fill="#3E3B72"/>
<rect x="16" y="6" width="1" height="1" fill="#3E3B72"/>
<rect x="18" y="6" width="1" height="1" fill="#3E3B72"/>
<rect x="5" y="5" width="1" height="1" fill="#3E3B72"/>
<rect x="10" y="5" width="1" height="1" fill="#3E3B72"/>
<rect x="12" y="5" width="1" height="1" fill="#3E3B72"/>
<rect x="17" y="5" width="1" height="1" fill="#3E3B72"/>
<rect x="5" y="7" width="1" height="1" fill="#3E3B72"/>
<rect x="11" y="7" width="1" height="1" fill="#3E3B72"/>
<rect x="17" y="7" width="1" height="1" fill="#3E3B72"/>
<rect x="9" y="8" width="2" height="1" fill="#3E3B72"/>
<rect x="12" y="8" width="2" height="1" fill="#3E3B72"/>
<rect x="11" y="4" width="1" height="1" fill="#3E3B72"/>
<rect x="9" y="16" width="2" height="1" fill="#3E3B72"/>
<rect x="25" y="16" width="1" height="1" fill="#3E3B72"/>
<rect x="9" y="17" width="17" height="1" fill="#AFC2E6"/>
<rect x="12" y="16" width="13" height="1" fill="#AFC2E6"/>
<rect x="4" y="18" width="1" height="1" fill="#3E3B72"/>
<rect x="6" y="18" width="1" height="1" fill="#3E3B72"/>
<rect x="8" y="18" width="1" height="1" fill="#3E3B72"/>
<rect x="26" y="18" width="1" height="1" fill="#3E3B72"/>
<rect x="5" y="17" width="1" height="1" fill="#3E3B72"/>
<rect x="8" y="17" width="1" height="1" fill="#3E3B72"/>
<rect x="26" y="17" width="1" height="1" fill="#3E3B72"/>
<rect x="5" y="19" width="1" height="1" fill="#3E3B72"/>
<rect x="8" y="19" width="1" height="1" fill="#3E3B72"/>
<rect x="26" y="19" width="1" height="1" fill="#3E3B72"/>
<rect x="7" y="14" width="1" height="1" fill="#3E3B72"/>
<rect x="25" y="14" width="1" height="1" fill="#3E3B72"/>
<rect x="8" y="15" width="1" height="1" fill="#3E3B72"/>
<rect x="25" y="15" width="1" height="1" fill="#3E3B72"/>
<rect x="12" y="19" width="1" height="1" fill="#4B79C8"/>
<rect x="16" y="19" width="1" height="1" fill="#4B79C8"/>
<rect x="20" y="19" width="1" height="1" fill="#4B79C8"/>
<rect x="24" y="19" width="1" height="1" fill="#4B79C8"/>
<rect x="10" y="20" width="15" height="1" fill="#8FA9D1"/>
<rect x="18" y="13" width="7" height="1" fill="#AFC2E6"/>
<rect x="9" y="19" width="1" height="1" fill="#AFC2E6"/>
<rect x="25" y="19" width="1" height="1" fill="#AFC2E6"/>
<rect x="9" y="20" width="1" height="1" fill="#AFC2E6"/>
<rect x="25" y="20" width="1" height="1" fill="#AFC2E6"/>
<rect x="9" y="21" width="4" height="1" fill="#3E3B72"/>
<rect x="14" y="21" width="3" height="1" fill="#3E3B72"/>
<rect x="18" y="21" width="3" height="1" fill="#3E3B72"/>
<rect x="22" y="21" width="3" height="1" fill="#3E3B72"/>
<rect x="26" y="21" width="1" height="1" fill="#3E3B72"/>
<rect x="8" y="20" width="1" height="1" fill="#3E3B72"/>
<rect x="26" y="20" width="1" height="1" fill="#3E3B72"/>
<rect x="13" y="21" width="1" height="1" fill="#4B79C8"/>
<rect x="17" y="21" width="1" height="1" fill="#4B79C8"/>
<rect x="21" y="21" width="1" height="1" fill="#4B79C8"/>
<rect x="25" y="21" width="1" height="1" fill="#4B79C8"/>
<rect x="14" y="23" width="1" height="1" fill="#4B79C8"/>
<rect x="18" y="23" width="1" height="1" fill="#4B79C8"/>
<rect x="22" y="23" width="1" height="1" fill="#4B79C8"/>
<rect x="26" y="23" width="1" height="1" fill="#4B79C8"/>
<rect x="13" y="23" width="1" height="1" fill="#3E3B72"/>
<rect x="15" y="23" width="1" height="1" fill="#3E3B72"/>
<rect x="17" y="23" width="1" height="1" fill="#3E3B72"/>
<rect x="19" y="23" width="1" height="1" fill="#3E3B72"/>
<rect x="21" y="23" width="1" height="1" fill="#3E3B72"/>
<rect x="23" y="23" width="1" height="1" fill="#3E3B72"/>
<rect x="25" y="23" width="1" height="1" fill="#3E3B72"/>
<rect x="27" y="23" width="1" height="1" fill="#3E3B72"/>
<rect x="13" y="22" width="2" height="1" fill="#3E3B72"/>
<rect x="17" y="22" width="2" height="1" fill="#3E3B72"/>
<rect x="21" y="22" width="2" height="1" fill="#3E3B72"/>
<rect x="25" y="22" width="2" height="1" fill="#3E3B72"/>
<rect x="14" y="24" width="1" height="1" fill="#3E3B72"/>
<rect x="18" y="24" width="1" height="1" fill="#3E3B72"/>
<rect x="22" y="24" width="1" height="1" fill="#3E3B72"/>
<rect x="26" y="24" width="1" height="1" fill="#3E3B72"/>
</svg>
