<?xml version="1.0" encoding="UTF-8"?>
<svg xmlns="http://www.w3.org/2000/svg" width="32" height="32" viewBox="0 0 32 32" shape-rendering="crispEdges">
<rect x="16" y="10" width="1" height="1" fill="#FFC53D"/>
<rect x="13" y="11" width="7" height="1" fill="#FFC53D"/>
<rect x="12" y="12" width="4" height="1" fill="#FFC53D"/>
<rect x="17" y="12" width="4" height="1" fill="#FFC53D"/>
<rect x="16" y="12" width="1" height="1" fill="#FF9A2E"/>
<rect x="11" y="13" width="3" height="1" fill="#FFC53D"/>
<rect x="19" y="13" width="3" height="1" fill="#FFC53D"/>
<rect x="14" y="13" width="5" height="1" fill="#FF9A2E"/>
<rect x="11" y="14" width="2" height="1" fill="#FFC53D"/>
<rect x="20" y="14" width="2" height="1" fill="#FFC53D"/>
<rect x="13" y="14" width="7" height="1" fill="#FF9A2E"/>
<rect x="11" y="15" width="2" height="1" fill="#FFC53D"/>
<rect x="20" y="15" width="2" height="1" fill="#FFC53D"/>
<rect x="13" y="15" width="7" height="1" fill="#FF9A2E"/>
<rect x="10" y="16" width="2" height="1" fill="#FFC53D"/>
<rect x="21" y="16" width="2" height="1" fill="#FFC53D"/>
<rect x="7" y="16" width="1" height="1" fill="#FF9A2E"/>
<rect x="12" y="16" width="9" height="1" fill="#FF9A2E"/>
<rect x="25" y="16" width="1" height="1" fill="#FF9A2E"/>
<rect x="11" y="17" width="2" height="1" fill="#FFC53D"/>
<rect x="20" y="17" width="2" height="1" fill="#FFC53D"/>
<rect x="13" y="17" width="7" height="1" fill="#FF9A2E"/>
<rect x="11" y="18" width="2" height="1" fill="#FFC53D"/>
<rect x="20" y="18" width="2" height="1" fill="#FFC53D"/>
<rect x="13" y="18" width="7" height="1" fill="#FF9A2E"/>
<rect x="11" y="19" width="3" height="1" fill="#FFC53D"/>
<rect x="19" y="19" width="3" height="1" fill="#FFC53D"/>
<rect x="14" y="19" width="5" height="1" fill="#FF9A2E"/>
<rect x="12" y="20" width="4" height="1" fill="#FFC53D"/>
<rect x="17" y="20" width="4" height="1" fill="#FFC53D"/>
<rect x="16" y="20" width="1" height="1" fill="#FF9A2E"/>
<rect x="13" y="21" width="7" height="1" fill="#FFC53D"/>
<rect x="16" y="22" width="1" height="1" fill="#FFC53D"/>
<rect x="16" y="7" width="1" height="1" fill="#FF9A2E"/>
<rect x="16" y="25" width="1" height="1" fill="#FF9A2E"/>
<rect x="8" y="8" width="1" height="1" fill="#FF9A2E"/>
<rect x="24" y="8" width="1" height="1" fill="#FF9A2E"/>
<rect x="8" y="24" width="1" height="1" fill="#FF9A2E"/>
<rect x="24" y="24" width="1" height="1" fill="#FF9A2E"/>
<rect x="13" y="22" width="3" height="1" fill="#3E3B72"/>
<rect x="17" y="22" width="3" height="1" fill="#3E3B72"/>
<rect x="11" y="20" width="1" height="1" fill="#3E3B72"/>
<rect x="21" y="20" width="1" height="1" fill="#3E3B72"/>
<rect x="12" y="21" width="1" height="1" fill="#3E3B72"/>
<rect x="20" y="21" width="1" height="1" fill="#3E3B72"/>
<rect x="10" y="14" width="1" height="1" fill="#3E3B72"/>
<rect x="22" y="14" width="1" height="1" fill="#3E3B72"/>
<rect x="7" y="8" width="1" height="1" fill="#3E3B72"/>
<rect x="9" y="8" width="1" height="1" fill="#3E3B72"/>
<rect x="16" y="8" width="1" height="1" fill="#3E3B72"/>
<rect x="23" y="8" width="1" height="1" fill="#3E3B72"/>
<rect x="25" y="8" width="1" height="1" fill="#3E3B72"/>
<rect x="8" y="7" width="1" height="1" fill="#3E3B72"/>
<rect x="15" y="7" width="1" height="1" fill="#3E3B72"/>
<rect x="17" y="7" width="1" height="1" fill="#3E3B72"/>
<rect x="24" y="7" width="1" height="1" fill="#3E3B72"/>
<rect x="8" y="9" width="1" height="1" fill="#3E3B72"/>
<rect x="16" y="9" width="1" height="1" fill="#3E3B72"/>
<rect x="24" y="9" width="1" height="1" fill="#3E3B72"/>
<rect x="8" y="23" width="1" height="1" fill="#3E3B72"/>
<rect x="16" y="23" width="1" height="1" fill="#3E3B72"/>
<rect x="24" y="23" width="1" height="1" fill="#3E3B72"/>
<rect x="12" y="11" width="1" height="1" fill="#3E3B72"/>
<rect x="20" y="11" width="1" height="1" fill="#3E3B72"/>
<rect x="13" y="10" width="3" height="1" fill="#3E3B72"/>
<rect x="17" y="10" width="3" height="1" fill="#3E3B72"/>
<rect x="6" y="16" width="1" height="1" fill="#3E3B72"/>
<rect x="8" y="16" width="2" height="1" fill="#3E3B72"/>
<rect x="23" y="16" width="2" height="1" fill="#3E3B72"/>
<rect x="26" y="16" width="1" height="1" fill="#3E3B72"/>
<rect x="7" y="15" width="1" height="1" fill="#3E3B72"/>
<rect x="10" y="15" width="1" height="1" fill="#3E3B72"/>
<rect x="22" y="15" width="1" height="1" fill="#3E3B72"/>
<rect x="25" y="15" width="1" height="1" fill="#3E3B72"/>
<rect x="7" y="17" width="1" height="1" fill="#3E3B72"/>
<rect x="10" y="17" width="1" height="1" fill="#3E3B72"/>
<rect x="22" y="17" width="1" height="1" fill="#3E3B72"/>
<rect x="25" y="17" width="1" height="1" fill="#3E3B72"/>
<rect x="10" y="18" width="1" height="1" fill="#3E3B72"/>
<rect x="22" y="18" width="1" height="1" fill="#3E3B72"/>
<rect x="11" y="12" width="1" height="1" fill="#3E3B72"/>
<rect x="21" y="12" width="1" height="1" fill="#3E3B72"/>
<rect x="10" y="13" width="1" height="1" fill="#3E3B72"/>
<rect x="22" y="13" width="1" height="1" fill="#3E3B72"/>
<rect x="16" y="6" width="1" height="1" fill="#3E3B72"/>
<rect x="7" y="24" width="1" height="1" fill="#3E3B72"/>
<rect x="9" y="24" width="1" height="1" fill="#3E3B72"/>
<rect x="16" y="24" width="1" height="1" fill="#3E3B72"/>
<rect x="23" y="24" width="1" height="1" fill="#3E3B72"/>
<rect x="25" y="24" width="1" height="1" fill="#3E3B72"/>
<rect x="8" y="25" width="1" height="1" fill="#3E3B72"/>
<rect x="15" y="25" width="1" height="1" fill="#3E3B72"/>
<rect x="17" y="25" width="1" height="1" fill="#3E3B72"/>
<rect x="24" y="25" width="1" height="1" fill="#3E3B72"/>
<rect x="10" y="19" width="1" height="1" fill="#3E3B72"/>
<rect x="22" y="19" width="1" height="1" fill="#3E3B72"/>
<rect x="16" y="26" width="1" height="1" fill="#3E3B72"/>
</svg>
